<svg width="1085" height="1085" viewBox="0 0 1085 1085" fill="none" xmlns="http://www.w3.org/2000/svg">
<rect width="1085" height="1085" rx="542.5" fill="#021031"/>
<path d="M201.907 628.651H167L230.784 541.514H300.598V564.011H244.112L201.907 628.651Z" fill="white"/>
<path d="M193.656 541.514V502.223H318.369V475.29H202.542C182.912 475.29 167 491.179 167 510.779V541.514H193.656Z" fill="white"/>
<path d="M318.369 628.651H466.253V604.253H405.861V501.59H446.311V475.29H338.416V501.59H378.634V604.253H318.369V628.651Z" fill="white"/>
<path d="M564.488 628.651H595.825L517.448 475.292H466.252V502.286H503.183L564.488 628.651Z" fill="white"/>
<path d="M617.123 475.29V502.286H546.829L532.091 475.292L617.123 475.29Z" fill="white"/>
<path d="M564.488 628.649H595.825L517.448 475.29H466.252V502.284H503.183L564.488 628.649Z" fill="white"/>
<path d="M842.851 623.284C825.48 623.284 812.375 619.093 803.537 610.712C794.851 602.179 790.508 589.303 790.508 572.084V519.512C790.508 503.207 795.08 490.636 804.223 481.798C813.366 472.959 826.47 468.54 843.537 468.54C853.137 468.54 861.366 469.836 868.223 472.426C875.232 475.017 880.642 478.902 884.452 484.083C888.413 489.112 890.394 495.588 890.394 503.512C890.394 505.188 889.556 506.026 887.88 506.026H868.223C866.394 506.026 865.48 505.188 865.48 503.512C865.48 499.245 863.575 496.045 859.766 493.912C855.956 491.779 850.699 490.712 843.994 490.712C835.004 490.712 828.223 492.845 823.651 497.112C819.08 501.379 816.794 508.312 816.794 517.912V573.455C816.794 582.141 818.927 588.922 823.194 593.798C827.613 598.674 834.089 601.112 842.623 601.112C851.309 601.112 857.861 598.75 862.28 594.027C866.699 589.303 868.909 582.446 868.909 573.455V568.655C868.909 561.036 867.08 555.474 863.423 551.969C859.918 548.312 854.585 546.484 847.423 546.484C841.632 546.484 835.842 547.703 830.051 550.141C824.261 552.579 826.166 553.126 820.833 557.393V536.426C827.233 531.55 826.547 531.931 833.708 529.341C840.87 526.598 848.261 525.226 855.88 525.226C869.137 525.226 878.966 528.96 885.366 536.426C891.918 543.741 895.194 554.788 895.194 569.569C895.194 587.093 890.775 600.427 881.937 609.57C873.099 618.712 860.071 623.284 842.851 623.284Z" fill="white"/>
<path d="M689.151 620.77C687.475 620.77 686.637 619.932 686.637 618.255V600.884C686.637 593.57 687.856 587.093 690.294 581.455C692.884 575.665 696.237 570.56 700.351 566.141C704.618 561.57 709.189 557.455 714.065 553.798C719.094 550.141 724.123 546.712 729.151 543.512C734.18 540.312 738.751 537.036 742.866 533.684C747.132 530.331 750.485 526.903 752.923 523.398C755.513 519.741 756.808 515.55 756.808 510.826V507.169C756.808 501.836 755.056 497.798 751.551 495.055C748.046 492.312 742.637 490.941 735.323 490.941C727.856 490.941 722.294 492.617 718.637 495.969C715.132 499.322 713.456 504.122 713.608 510.369C713.913 512.198 713.151 513.112 711.323 513.112H691.437C689.761 513.112 688.846 512.198 688.694 510.369C688.389 501.226 690.065 493.531 693.722 487.284C697.38 481.036 702.865 476.388 710.18 473.341C717.494 470.141 726.332 468.541 736.694 468.541C752.237 468.541 763.818 471.817 771.437 478.369C779.209 484.769 783.094 494.445 783.094 507.398C783.094 514.865 781.799 521.417 779.209 527.055C776.77 532.541 773.494 537.417 769.38 541.684C765.418 545.798 760.999 549.531 756.123 552.884C751.399 556.236 746.599 559.436 741.723 562.484C736.999 565.531 732.58 568.731 728.465 572.084C724.504 575.436 721.227 579.17 718.637 583.284C716.199 587.398 714.98 592.274 714.98 597.913V620.77L724.209 597.913H779.894C781.57 597.913 782.409 598.827 782.409 600.655V618.255C782.409 619.932 781.57 620.77 779.894 620.77H689.151Z" fill="white"/>
<line x1="651.216" y1="640.971" x2="651.216" y2="463" stroke="white" stroke-width="1.18717"/>
<path d="M903.12 468.541H917.352V499.27H903.12L912.441 486.927H903.12V468.541Z" fill="white"/>
</svg>
