<svg width="208" height="123" viewBox="0 0 208 123" fill="none" xmlns="http://www.w3.org/2000/svg">
<path fill-rule="evenodd" clip-rule="evenodd" d="M28.2217 35.2807L35.2777 28.2244V67.5163L28.2217 74.5724V35.2807Z" fill="black"/>
<path fill-rule="evenodd" clip-rule="evenodd" d="M7.05629 95.7404V115.386L0 122.442V63.5046L21.1684 42.3363V52.1592L7.05629 66.2716V85.9173L16.783 76.1905V86.0134L7.05629 95.7404Z" fill="black"/>
<path fill-rule="evenodd" clip-rule="evenodd" d="M56.4471 16.879V36.5249L49.391 43.581V23.935L42.335 30.9914V21.1683L63.5032 0V9.82286L56.4471 16.879Z" fill="black"/>
<path fill-rule="evenodd" clip-rule="evenodd" d="M28.2197 80.7881L35.2757 73.7123V87.0587L28.2197 94.1147V80.7881ZM30.7658 81.8411V87.9662L32.7274 86.0037V79.8731L30.7658 81.8411Z" fill="black"/>
<path d="M199.399 110.167C198.462 110.167 197.652 109.692 196.97 108.741C196.288 107.791 195.946 106.339 195.946 104.386C195.946 102.499 196.348 100.98 197.151 99.8292C197.967 98.6783 199.185 97.6814 200.804 96.8384C201.312 96.5707 201.741 96.3299 202.088 96.1157C202.436 95.9016 202.651 95.7009 202.731 95.5136V93.1049C202.731 92.5562 202.664 92.0878 202.53 91.6998C202.41 91.2983 202.102 91.0976 201.607 91.0976C201.152 91.0976 200.844 91.3117 200.683 91.7399C200.523 92.1548 200.443 92.6766 200.443 93.3056V94.3494H196.388V93.426C196.388 92.2217 196.622 91.1846 197.09 90.3148C197.572 89.4316 198.221 88.7558 199.037 88.2874C199.867 87.8057 200.804 87.5648 201.848 87.5648C202.851 87.5648 203.721 87.799 204.457 88.2674C205.193 88.7223 205.762 89.358 206.163 90.1743C206.578 90.9772 206.785 91.9005 206.785 92.9443V106.032C206.785 107.008 206.812 107.771 206.866 108.32C206.919 108.855 206.986 109.364 207.066 109.845H203.092C202.918 109.631 202.811 109.317 202.771 108.902C202.744 108.487 202.731 108.213 202.731 108.079H202.45C202.115 108.695 201.687 109.196 201.165 109.584C200.657 109.973 200.068 110.167 199.399 110.167ZM201.045 106.192C201.513 106.192 201.908 106.032 202.229 105.71C202.564 105.389 202.731 105.041 202.731 104.667V99.4478C201.754 99.8626 201.038 100.492 200.583 101.335C200.141 102.164 199.921 103.101 199.921 104.145C199.921 104.6 200.008 105.055 200.182 105.51C200.356 105.965 200.643 106.192 201.045 106.192Z" fill="black"/>
<path d="M189.176 109.845V87.8856H193.23V109.845H189.176ZM189.176 84.3929V80.3383H193.23V84.3929H189.176Z" fill="black"/>
<path d="M180.133 117.714C178.996 117.714 177.932 117.587 176.942 117.332C175.952 117.078 175.149 116.663 174.533 116.088C173.931 115.526 173.63 114.783 173.63 113.86C173.63 113.151 173.824 112.535 174.212 112.013C174.613 111.491 175.068 111.063 175.577 110.729C176.085 110.407 176.494 110.207 176.801 110.126C176.146 109.939 175.57 109.618 175.075 109.163C174.593 108.708 174.352 108.052 174.352 107.196C174.352 106.366 174.62 105.69 175.155 105.168C175.691 104.647 176.266 104.225 176.882 103.904C176.146 103.422 175.57 102.793 175.155 102.017C174.754 101.228 174.553 100.264 174.553 99.1266V93.145C174.553 91.499 175.008 90.1609 175.918 89.1305C176.841 88.0867 178.099 87.5648 179.692 87.5648C180.722 87.5648 181.559 87.7655 182.201 88.167C182.857 88.5551 183.372 89.0234 183.746 89.5721C184.135 88.9164 184.656 88.4213 185.312 88.0867C185.968 87.7388 186.557 87.5648 187.078 87.5648V91.1779C186.543 91.1779 186.075 91.2247 185.673 91.3184C185.272 91.3987 184.951 91.5124 184.71 91.6596C184.75 91.7533 184.79 91.9473 184.83 92.2417C184.884 92.5361 184.911 92.7971 184.911 93.0246V99.2471C184.911 100.799 184.436 102.091 183.485 103.121C182.535 104.151 181.271 104.667 179.692 104.667C179.317 104.667 179.063 104.653 178.929 104.627C178.755 104.787 178.615 104.948 178.508 105.108C178.414 105.269 178.367 105.443 178.367 105.63C178.367 106.058 178.608 106.366 179.09 106.553C179.585 106.727 180.24 106.875 181.057 106.995C182.783 107.249 184.181 107.751 185.252 108.501C186.336 109.25 186.878 110.448 186.878 112.094C186.878 113.378 186.55 114.435 185.894 115.265C185.252 116.095 184.416 116.71 183.385 117.112C182.355 117.513 181.271 117.714 180.133 117.714ZM180.214 114.302C180.883 114.302 181.465 114.181 181.96 113.94C182.455 113.699 182.703 113.325 182.703 112.816C182.703 112.308 182.549 111.96 182.241 111.772C181.947 111.598 181.445 111.424 180.736 111.25L179.049 110.849C178.635 111.09 178.28 111.364 177.986 111.672C177.705 111.98 177.564 112.348 177.564 112.776C177.564 113.191 177.772 113.545 178.186 113.84C178.601 114.148 179.277 114.302 180.214 114.302ZM179.732 101.294C180.16 101.294 180.468 101.147 180.655 100.853C180.843 100.558 180.936 100.117 180.936 99.5281V93.1049C180.936 92.5696 180.849 92.1347 180.675 91.8001C180.501 91.4656 180.187 91.2983 179.732 91.2983C179.277 91.2983 178.962 91.4723 178.789 91.8202C178.615 92.1681 178.528 92.5963 178.528 93.1049V99.5281C178.528 100.117 178.621 100.558 178.809 100.853C178.996 101.147 179.304 101.294 179.732 101.294Z" fill="black"/>
<path d="M166.531 110.126C164.912 110.126 163.64 109.584 162.717 108.501C161.794 107.403 161.332 106.018 161.332 104.346V93.3457C161.332 91.673 161.794 90.2947 162.717 89.2108C163.64 88.1135 164.912 87.5648 166.531 87.5648C168.137 87.5648 169.401 88.1135 170.325 89.2108C171.261 90.2947 171.73 91.673 171.73 93.3457V104.346C171.73 106.018 171.261 107.403 170.325 108.501C169.401 109.584 168.137 110.126 166.531 110.126ZM166.531 106.594C167.053 106.594 167.414 106.386 167.615 105.971C167.815 105.543 167.916 105.001 167.916 104.346V93.3457C167.916 92.6766 167.815 92.1347 167.615 91.7198C167.414 91.305 167.053 91.0976 166.531 91.0976C166.009 91.0976 165.648 91.305 165.447 91.7198C165.246 92.1347 165.146 92.6766 165.146 93.3457V104.346C165.146 105.015 165.246 105.557 165.447 105.971C165.648 106.386 166.009 106.594 166.531 106.594Z" fill="black"/>
<path d="M154.463 109.845V80.3383H158.518V109.845H154.463Z" fill="black"/>
<path d="M146.461 110.126C144.841 110.126 143.57 109.584 142.647 108.501C141.723 107.403 141.262 106.018 141.262 104.346V93.3457C141.262 91.673 141.723 90.2947 142.647 89.2108C143.57 88.1135 144.841 87.5648 146.461 87.5648C148.066 87.5648 149.331 88.1135 150.254 89.2108C151.191 90.2947 151.659 91.673 151.659 93.3457V104.346C151.659 106.018 151.191 107.403 150.254 108.501C149.331 109.584 148.066 110.126 146.461 110.126ZM146.461 106.594C146.982 106.594 147.344 106.386 147.544 105.971C147.745 105.543 147.846 105.001 147.846 104.346V93.3457C147.846 92.6766 147.745 92.1347 147.544 91.7198C147.344 91.305 146.982 91.0976 146.461 91.0976C145.939 91.0976 145.577 91.305 145.377 91.7198C145.176 92.1347 145.075 92.6766 145.075 93.3457V104.346C145.075 105.015 145.176 105.557 145.377 105.971C145.577 106.386 145.939 106.594 146.461 106.594Z" fill="black"/>
<path d="M128.27 109.845V87.886H132.324V89.7327C132.806 89.2643 133.348 88.7892 133.95 88.3075C134.552 87.8124 135.108 87.5648 135.616 87.5648C136.285 87.5648 136.847 87.7789 137.302 88.2071C137.757 88.6354 138.098 89.1773 138.326 89.833C138.553 90.4887 138.667 91.1645 138.667 91.8604V109.845H134.612V92.6633C134.612 92.235 134.539 91.934 134.392 91.76C134.244 91.586 133.997 91.4991 133.649 91.4991C133.355 91.4991 133.1 91.6061 132.886 91.8202C132.685 92.0209 132.498 92.2618 132.324 92.5428V109.845H128.27Z" fill="black"/>
<path d="M120.449 110.146C118.669 110.146 117.358 109.591 116.515 108.48C115.685 107.37 115.271 105.824 115.271 103.844V93.8676C115.271 91.8737 115.685 90.3281 116.515 89.2308C117.358 88.1202 118.669 87.5648 120.449 87.5648C122.229 87.5648 123.54 88.1202 124.383 89.2308C125.24 90.3415 125.668 91.8871 125.668 93.8676V95.5939H121.613V93.3457C121.613 92.7302 121.533 92.215 121.373 91.8001C121.212 91.3853 120.904 91.1779 120.449 91.1779C119.994 91.1779 119.693 91.392 119.546 91.8202C119.399 92.235 119.325 92.7435 119.325 93.3457V104.366C119.325 104.968 119.399 105.483 119.546 105.911C119.693 106.326 119.994 106.533 120.449 106.533C120.904 106.533 121.212 106.326 121.373 105.911C121.533 105.496 121.613 104.981 121.613 104.366V102.117H125.668V103.844C125.668 105.824 125.24 107.37 124.383 108.48C123.54 109.591 122.229 110.146 120.449 110.146Z" fill="black"/>
<path d="M107.611 110.167C105.992 110.167 104.714 109.611 103.778 108.501C102.854 107.376 102.393 106.005 102.393 104.386V93.3457C102.393 91.6329 102.854 90.2412 103.778 89.1706C104.701 88.1001 105.992 87.5648 107.652 87.5648C108.735 87.5648 109.666 87.8124 110.442 88.3075C111.231 88.8026 111.833 89.4784 112.248 90.3348C112.663 91.1779 112.87 92.1414 112.87 93.2253V99.6084H106.166V104.386C106.166 104.934 106.287 105.443 106.528 105.911C106.782 106.366 107.156 106.594 107.652 106.594C108.173 106.594 108.541 106.38 108.756 105.951C108.983 105.523 109.097 105.001 109.097 104.386V101.977H112.87V104.506C112.87 106.206 112.409 107.577 111.485 108.621C110.575 109.651 109.284 110.167 107.611 110.167ZM106.166 96.4369H109.097V93.3457C109.097 92.7436 108.99 92.2217 108.776 91.7801C108.575 91.3251 108.2 91.0976 107.652 91.0976C107.143 91.0976 106.768 91.3318 106.528 91.8001C106.287 92.2551 106.166 92.7703 106.166 93.3457V96.4369Z" fill="black"/>
<path d="M93.0909 109.845V84.7944H88.9961V80.3383H101.521V84.7944H97.4266V109.845H93.0909Z" fill="black"/>
<path d="M198.848 72.1821C197.836 72.1821 197.037 71.835 196.452 71.1409C195.874 70.4383 195.586 69.581 195.586 68.569V61.6691C195.586 60.5986 195.874 59.7287 196.452 59.0597C197.029 58.3906 197.836 58.056 198.873 58.056C199.55 58.056 200.132 58.2108 200.617 58.5202C201.11 58.8297 201.486 59.252 201.746 59.7873C202.005 60.3142 202.135 60.9164 202.135 61.5938V65.5833H197.944V68.569C197.944 68.912 198.02 69.2298 198.17 69.5225C198.329 69.8069 198.563 69.949 198.873 69.949C199.199 69.949 199.429 69.8152 199.563 69.5476C199.705 69.28 199.776 68.9538 199.776 68.569V67.0636H202.135V68.6443C202.135 69.7065 201.846 70.5638 201.269 71.2161C200.7 71.8601 199.893 72.1821 198.848 72.1821ZM197.944 63.6011H199.776V61.6691C199.776 61.2927 199.709 60.9666 199.575 60.6906C199.45 60.4062 199.216 60.264 198.873 60.264C198.555 60.264 198.321 60.4104 198.17 60.7031C198.02 60.9875 197.944 61.3095 197.944 61.6691V63.6011Z" fill="black"/>
<path d="M181.292 72.2627C179.672 72.2627 178.401 71.7207 177.478 70.6368C176.554 69.5395 176.093 68.1545 176.093 66.4817V55.482C176.093 53.8092 176.554 52.4309 177.478 51.347C178.401 50.2497 179.672 49.701 181.292 49.701C182.897 49.701 184.162 50.2497 185.085 51.347C186.022 52.4309 186.49 53.8092 186.49 55.482V66.4817C186.49 68.1545 186.022 69.5395 185.085 70.6368C184.162 71.7207 182.897 72.2627 181.292 72.2627ZM181.292 68.7299C181.813 68.7299 182.175 68.5225 182.375 68.1076C182.576 67.6794 182.677 67.1374 182.677 66.4817V55.482C182.677 54.8129 182.576 54.2709 182.375 53.8561C182.175 53.4412 181.813 53.2338 181.292 53.2338C180.77 53.2338 180.408 53.4412 180.208 53.8561C180.007 54.2709 179.907 54.8129 179.907 55.482V66.4817C179.907 67.1508 180.007 67.6928 180.208 68.1076C180.408 68.5225 180.77 68.7299 181.292 68.7299Z" fill="black"/>
<path d="M165.822 72.3029C164.885 72.3029 164.075 71.8278 163.393 70.8777C162.71 69.9276 162.369 68.4757 162.369 66.522C162.369 64.6352 162.771 63.1163 163.573 61.9655C164.39 60.8147 165.608 59.8177 167.227 58.9747C167.735 58.707 168.163 58.4662 168.511 58.2521C168.859 58.038 169.073 57.8372 169.154 57.6499V55.2412C169.154 54.6925 169.087 54.2242 168.953 53.8361C168.832 53.4346 168.525 53.2339 168.03 53.2339C167.575 53.2339 167.267 53.448 167.106 53.8762C166.946 54.2911 166.865 54.813 166.865 55.4419V56.4857H162.811V55.5623C162.811 54.358 163.045 53.3209 163.513 52.4511C163.995 51.5679 164.644 50.8921 165.46 50.4238C166.29 49.942 167.227 49.7011 168.27 49.7011C169.274 49.7011 170.144 49.9353 170.88 50.4037C171.616 50.8587 172.185 51.4943 172.586 52.3106C173.001 53.1135 173.208 54.0368 173.208 55.0806V68.1679C173.208 69.1448 173.235 69.9076 173.289 70.4562C173.342 70.9915 173.409 71.5 173.489 71.9817H169.515C169.341 71.7676 169.234 71.4531 169.194 71.0383C169.167 70.6235 169.154 70.3492 169.154 70.2153H168.873C168.538 70.8309 168.11 71.3327 167.588 71.7208C167.079 72.1089 166.491 72.3029 165.822 72.3029ZM167.468 68.3285C167.936 68.3285 168.331 68.1679 168.652 67.8468C168.986 67.5256 169.154 67.1777 169.154 66.803V61.5841C168.177 61.999 167.461 62.6279 167.006 63.4709C166.564 64.3006 166.344 65.2373 166.344 66.2811C166.344 66.7361 166.43 67.1911 166.604 67.646C166.778 68.101 167.066 68.3285 167.468 68.3285ZM169.876 47.7942C169.247 47.7942 168.672 47.6738 168.15 47.4329C167.575 47.1653 166.972 47.0315 166.344 47.0315C165.982 47.0315 165.608 47.0984 165.219 47.2322C164.831 47.3526 164.497 47.4998 164.216 47.6738V44.7031C164.403 44.5559 164.611 44.4354 164.838 44.3418C165.066 44.2347 165.3 44.141 165.541 44.0607C165.781 43.9805 166.049 43.9403 166.344 43.9403C166.972 43.9403 167.561 44.0474 168.11 44.2615C168.404 44.3685 168.699 44.4689 168.993 44.5626C169.287 44.6562 169.582 44.7031 169.876 44.7031C170.238 44.7031 170.612 44.6428 171 44.5224C171.388 44.3886 171.723 44.2347 172.004 44.0607V47.0315C171.75 47.259 171.408 47.4463 170.98 47.5935C170.552 47.7273 170.184 47.7942 169.876 47.7942Z" fill="black"/>
<path d="M154.848 72.2827C153.068 72.2827 151.756 71.7274 150.913 70.6167C150.084 69.506 149.669 67.9604 149.669 65.9799V56.0038C149.669 54.01 150.084 52.4644 150.913 51.3671C151.756 50.2564 153.068 49.701 154.848 49.701C156.627 49.701 157.939 50.2564 158.782 51.3671C159.638 52.4778 160.067 54.0233 160.067 56.0038V57.7301H156.012V55.482C156.012 54.8664 155.932 54.3512 155.771 53.9364C155.61 53.5215 155.303 53.3141 154.848 53.3141C154.393 53.3141 154.092 53.5282 153.944 53.9564C153.797 54.3713 153.724 54.8798 153.724 55.482V66.5018C153.724 67.104 153.797 67.6192 153.944 68.0474C154.092 68.4622 154.393 68.6697 154.848 68.6697C155.303 68.6697 155.61 68.4622 155.771 68.0474C155.932 67.6326 156.012 67.1174 156.012 66.5018V64.2537H160.067V65.9799C160.067 67.9604 159.638 69.506 158.782 70.6167C157.939 71.7274 156.627 72.2827 154.848 72.2827ZM157.337 73.2061C157.925 73.2061 158.461 73.4001 158.942 73.7882C159.424 74.1896 159.665 74.8587 159.665 75.7954C159.665 76.6652 159.418 77.3745 158.922 77.9231C158.441 78.4852 157.812 78.8933 157.036 79.1476C156.273 79.4018 155.47 79.5289 154.627 79.5289C153.904 79.5289 153.168 79.4152 152.419 79.1877C151.683 78.9736 151.141 78.7394 150.793 78.4852L151.837 76.2772C152.078 76.4511 152.492 76.6585 153.081 76.8994C153.683 77.1403 154.272 77.2607 154.848 77.2607C155.436 77.2607 155.938 77.1604 156.353 76.9596C156.768 76.7589 156.975 76.411 156.975 75.9159C156.975 75.501 156.862 75.22 156.634 75.0728C156.42 74.9256 156.186 74.852 155.932 74.852C155.329 74.852 154.894 75.0795 154.627 75.5345L152.439 74.8119L153.623 71.9816H156.012L155.068 74.1495H154.888C154.995 73.8551 155.296 73.6209 155.791 73.4469C156.286 73.2863 156.801 73.2061 157.337 73.2061Z" fill="black"/>
<path d="M139.4 72.3028C138.463 72.3028 137.653 71.8277 136.971 70.8776C136.289 69.9275 135.947 68.4756 135.947 66.5219C135.947 64.6351 136.349 63.1162 137.152 61.9654C137.968 60.8146 139.186 59.8176 140.805 58.9746C141.313 58.707 141.742 58.4661 142.089 58.252C142.437 58.0379 142.651 57.8371 142.732 57.6498V55.2411C142.732 54.6924 142.665 54.2241 142.531 53.836C142.411 53.4346 142.103 53.2338 141.608 53.2338C141.153 53.2338 140.845 53.4479 140.684 53.8761C140.524 54.291 140.444 54.8129 140.444 55.4418V56.4856H136.389V55.5622C136.389 54.3579 136.623 53.3208 137.091 52.451C137.573 51.5678 138.222 50.892 139.038 50.4237C139.868 49.9419 140.805 49.701 141.849 49.701C142.852 49.701 143.722 49.9352 144.458 50.4036C145.194 50.8586 145.763 51.4942 146.164 52.3105C146.579 53.1134 146.786 54.0367 146.786 55.0805V68.1678C146.786 69.1447 146.813 69.9075 146.867 70.4561C146.92 70.9914 146.987 71.4999 147.067 71.9816H143.093C142.919 71.7675 142.812 71.4531 142.772 71.0382C142.745 70.6234 142.732 70.3491 142.732 70.2152H142.451C142.116 70.8308 141.688 71.3326 141.166 71.7207C140.658 72.1088 140.069 72.3028 139.4 72.3028ZM141.046 68.3284C141.514 68.3284 141.909 68.1678 142.23 67.8467C142.565 67.5255 142.732 67.1776 142.732 66.8029V61.584C141.755 61.9989 141.039 62.6278 140.584 63.4709C140.142 64.3005 139.922 65.2372 139.922 66.281C139.922 66.736 140.009 67.191 140.183 67.646C140.357 68.1009 140.644 68.3284 141.046 68.3284Z" fill="black"/>
<path d="M126.828 71.9815L123.255 50.0221H127.189L128.554 62.7481L128.674 64.9561H128.996L129.116 62.7481L130.481 50.0221H134.415L130.842 71.9815H126.828Z" fill="black"/>
<path d="M116.157 72.2627C114.538 72.2627 113.266 71.7207 112.343 70.6368C111.42 69.5395 110.958 68.1545 110.958 66.4817V55.482C110.958 53.8092 111.42 52.4309 112.343 51.347C113.266 50.2497 114.538 49.701 116.157 49.701C117.763 49.701 119.027 50.2497 119.951 51.347C120.887 52.4309 121.356 53.8092 121.356 55.482V66.4817C121.356 68.1545 120.887 69.5395 119.951 70.6368C119.027 71.7207 117.763 72.2627 116.157 72.2627ZM116.157 68.7299C116.679 68.7299 117.04 68.5225 117.241 68.1076C117.441 67.6794 117.542 67.1374 117.542 66.4817V55.482C117.542 54.8129 117.441 54.2709 117.241 53.8561C117.04 53.4412 116.679 53.2338 116.157 53.2338C115.635 53.2338 115.274 53.4412 115.073 53.8561C114.872 54.2709 114.772 54.8129 114.772 55.482V66.4817C114.772 67.1508 114.872 67.6928 115.073 68.1076C115.274 68.5225 115.635 68.7299 116.157 68.7299Z" fill="black"/>
<path d="M97.9678 71.9816V50.0222H102.022V51.8689C102.504 51.4005 103.046 50.9255 103.648 50.4437C104.25 49.9486 104.806 49.701 105.314 49.701C105.983 49.701 106.545 49.9152 107 50.3434C107.455 50.7716 107.797 51.3135 108.024 51.9693C108.252 52.625 108.365 53.3007 108.365 53.9966V71.9816H104.311V54.7995C104.311 54.3713 104.237 54.0702 104.09 53.8962C103.943 53.7223 103.695 53.6353 103.347 53.6353C103.053 53.6353 102.799 53.7423 102.584 53.9564C102.384 54.1572 102.196 54.398 102.022 54.6791V71.9816H97.9678Z" fill="black"/>
<path d="M90.1992 71.9814V42.4747H94.5349V71.9814H90.1992Z" fill="black"/>
<path d="M171.32 34.7621C170.342 34.7621 169.47 34.5488 168.705 34.1222C167.952 33.6957 167.362 33.0998 166.936 32.3345C166.509 31.5693 166.296 30.6911 166.296 29.7C166.296 28.9347 166.415 28.2447 166.653 27.63C166.892 27.0027 167.224 26.457 167.651 25.9928C168.09 25.5287 168.611 25.1711 169.213 24.9202C169.815 24.6568 170.467 24.525 171.17 24.525C171.835 24.525 172.437 24.6442 172.976 24.8826C173.528 25.1209 173.999 25.4534 174.388 25.8799C174.789 26.2939 175.09 26.7895 175.291 27.3666C175.492 27.9436 175.579 28.5772 175.554 29.2672L175.536 29.9258H167.35L167.143 28.7403H174.463L174.124 29.0602V28.6085C174.099 28.1569 173.967 27.7241 173.729 27.3101C173.491 26.8836 173.152 26.5386 172.713 26.2751C172.286 26.0117 171.772 25.8799 171.17 25.8799C170.467 25.8799 169.859 26.0242 169.344 26.3127C168.83 26.5887 168.435 27.0027 168.159 27.5547C167.883 28.1067 167.745 28.7905 167.745 29.6059C167.745 30.3837 167.895 31.0612 168.197 31.6383C168.498 32.2028 168.924 32.6419 169.476 32.9555C170.041 33.2692 170.718 33.426 171.508 33.426C171.973 33.426 172.431 33.3507 172.882 33.2002C173.346 33.0371 173.854 32.7234 174.406 32.2592L175.14 33.2754C174.852 33.564 174.507 33.8211 174.105 34.047C173.704 34.2602 173.265 34.4359 172.788 34.5739C172.311 34.6993 171.822 34.7621 171.32 34.7621Z" fill="black"/>
<path d="M158.918 34.7622C158.027 34.7622 157.224 34.5427 156.509 34.1036C155.807 33.6645 155.249 33.0623 154.835 32.2971C154.433 31.5192 154.232 30.6411 154.232 29.6625C154.232 28.6714 154.439 27.7933 154.853 27.028C155.267 26.2502 155.826 25.6417 156.528 25.2027C157.231 24.7636 158.021 24.544 158.899 24.544C159.389 24.544 159.859 24.6193 160.311 24.7698C160.775 24.9204 161.189 25.1337 161.553 25.4097C161.916 25.6731 162.218 25.9805 162.456 26.3317C162.694 26.6705 162.839 27.028 162.889 27.4044L162.456 27.2538V20.6487H163.867V34.574H162.475L162.437 32.1277L162.795 31.996C162.744 32.3472 162.6 32.6922 162.362 33.031C162.136 33.3571 161.847 33.652 161.496 33.9154C161.145 34.1789 160.743 34.3859 160.292 34.5364C159.853 34.687 159.395 34.7622 158.918 34.7622ZM159.125 33.4638C159.777 33.4638 160.361 33.3007 160.875 32.9745C161.39 32.6483 161.791 32.1967 162.08 31.6196C162.381 31.0425 162.531 30.3839 162.531 29.6437C162.531 28.9035 162.381 28.2512 162.08 27.6866C161.791 27.1095 161.39 26.6579 160.875 26.3317C160.361 25.993 159.777 25.8236 159.125 25.8236C158.448 25.8236 157.852 25.993 157.337 26.3317C156.836 26.6579 156.434 27.1095 156.133 27.6866C155.844 28.2512 155.7 28.9035 155.7 29.6437C155.7 30.3713 155.844 31.0237 156.133 31.6008C156.422 32.1779 156.823 32.6358 157.337 32.9745C157.852 33.3007 158.448 33.4638 159.125 33.4638Z" fill="black"/>
<path d="M131.739 34.574V24.7509H133.151L133.188 26.9903L132.906 27.0844C133.006 26.708 133.169 26.3693 133.395 26.0682C133.634 25.7546 133.916 25.4848 134.242 25.259C134.568 25.0332 134.926 24.8638 135.315 24.7509C135.704 24.6255 136.111 24.5627 136.538 24.5627C137.052 24.5627 137.51 24.6506 137.912 24.8262C138.326 24.9893 138.671 25.2778 138.947 25.6918C139.235 26.0933 139.455 26.6265 139.605 27.2914L139.266 27.122L139.398 26.8021C139.524 26.5135 139.706 26.2376 139.944 25.9741C140.195 25.6981 140.477 25.4535 140.791 25.2402C141.117 25.0269 141.468 24.8638 141.845 24.7509C142.233 24.6255 142.629 24.5627 143.03 24.5627C143.72 24.5627 144.303 24.7133 144.78 25.0144C145.257 25.3029 145.614 25.7483 145.853 26.3505C146.104 26.9526 146.229 27.7179 146.229 28.6463V34.574H144.78V28.7215C144.78 28.0692 144.699 27.536 144.535 27.122C144.372 26.708 144.128 26.4006 143.802 26.1999C143.488 25.9866 143.087 25.88 142.597 25.88C142.171 25.88 141.776 25.9553 141.412 26.1058C141.06 26.2438 140.753 26.4446 140.49 26.708C140.239 26.9589 140.038 27.2475 139.887 27.5736C139.749 27.8998 139.68 28.2511 139.68 28.6274V34.574H138.25V28.7027C138.25 28.0754 138.162 27.5548 137.987 27.1408C137.824 26.7268 137.579 26.4132 137.253 26.1999C136.927 25.9866 136.525 25.88 136.049 25.88C135.635 25.88 135.252 25.9553 134.901 26.1058C134.549 26.2438 134.242 26.4383 133.979 26.6892C133.728 26.9401 133.527 27.2286 133.376 27.5548C133.238 27.881 133.169 28.2323 133.169 28.6086V34.574H131.739Z" fill="black"/>
<path d="M123.908 34.7622C123.156 34.7622 122.516 34.6116 121.989 34.3106C121.475 33.9969 121.079 33.5453 120.803 32.9556C120.54 32.366 120.408 31.6321 120.408 30.7539V24.751H121.838V30.4717C121.838 31.1366 121.926 31.6948 122.102 32.1465C122.29 32.5856 122.566 32.918 122.93 33.1438C123.306 33.3696 123.764 33.4826 124.304 33.4826C124.718 33.4826 125.1 33.4136 125.451 33.2756C125.803 33.125 126.11 32.9243 126.374 32.6734C126.637 32.4225 126.844 32.1277 126.995 31.7889C127.145 31.4502 127.22 31.0927 127.22 30.7163V24.751H128.632V34.574H127.239L127.183 32.504L127.409 32.3911C127.258 32.8302 127.007 33.2316 126.656 33.5955C126.305 33.9467 125.884 34.229 125.395 34.4423C124.918 34.6555 124.423 34.7622 123.908 34.7622Z" fill="black"/>
<path d="M113.03 34.5742V24.7512H114.442L114.479 27.3669L114.329 27.0094C114.467 26.5703 114.686 26.1625 114.987 25.7862C115.301 25.4098 115.671 25.1087 116.098 24.8829C116.524 24.6571 116.995 24.5442 117.509 24.5442C117.722 24.5442 117.923 24.563 118.111 24.6006C118.299 24.6257 118.456 24.6634 118.582 24.7136L118.186 26.2943C118.023 26.219 117.854 26.1688 117.678 26.1437C117.515 26.1061 117.358 26.0873 117.208 26.0873C116.781 26.0873 116.399 26.1625 116.06 26.3131C115.721 26.4636 115.433 26.6769 115.194 26.9529C114.956 27.2164 114.774 27.5237 114.649 27.875C114.523 28.2263 114.46 28.6026 114.46 29.0041V34.5742H113.03Z" fill="black"/>
<path d="M105.571 34.7619C104.592 34.7619 103.72 34.5423 102.955 34.1032C102.202 33.6641 101.606 33.0557 101.167 32.2779C100.741 31.5001 100.527 30.6156 100.527 29.6245C100.527 28.646 100.741 27.7741 101.167 27.0088C101.606 26.2435 102.202 25.6414 102.955 25.2023C103.72 24.7632 104.592 24.5437 105.571 24.5437C106.537 24.5437 107.396 24.7632 108.149 25.2023C108.914 25.6414 109.51 26.2435 109.936 27.0088C110.375 27.7741 110.595 28.646 110.595 29.6245C110.595 30.6156 110.375 31.5001 109.936 32.2779C109.51 33.0557 108.914 33.6641 108.149 34.1032C107.396 34.5423 106.537 34.7619 105.571 34.7619ZM105.571 33.4258C106.261 33.4258 106.875 33.2627 107.415 32.9365C107.954 32.5978 108.374 32.1461 108.676 31.5816C108.977 31.0045 109.127 30.3522 109.127 29.6245C109.127 28.8969 108.977 28.2508 108.676 27.6863C108.374 27.1217 107.954 26.6826 107.415 26.369C106.875 26.0428 106.261 25.8797 105.571 25.8797C104.881 25.8797 104.26 26.0428 103.708 26.369C103.168 26.6826 102.742 27.128 102.428 27.7051C102.127 28.2696 101.983 28.9094 101.995 29.6245C101.983 30.3522 102.127 31.0045 102.428 31.5816C102.742 32.1461 103.168 32.5978 103.708 32.9365C104.26 33.2627 104.881 33.4258 105.571 33.4258ZM104.385 23.3017L103.877 22.5301L106.549 20.2908L107.471 21.4763L104.385 23.3017Z" fill="black"/>
<path d="M90.5322 34.5739V21.4012H92V34.5739H90.5322ZM91.2661 28.7027V27.2537H97.9277V28.7027H91.2661ZM91.2661 22.8314V21.4012H98.8121V22.8314H91.2661Z" fill="black"/>
<path d="M76.8008 122.443H76.0479L76.0479 0L76.8008 0L76.8008 122.443Z" fill="black"/>
</svg>
